
<svg width="604" height="75" viewBox="0 0 604 75" fill="none" xmlns="http://www.w3.org/2000/svg">
<path d="M0.6875 74V1.27273H32.0795C37.4773 1.27273 42.2003 2.33807 46.2486 4.46875C50.2969 6.59943 53.4456 9.59422 55.6946 13.4531C57.9437 17.312 59.0682 21.822 59.0682 26.983C59.0682 32.1913 57.9081 36.7012 55.5881 40.5128C53.2917 44.3243 50.0601 47.2599 45.8935 49.3196C41.7505 51.3793 36.9091 52.4091 31.3693 52.4091H12.6193V37.0682H27.392C29.7121 37.0682 31.6889 36.6657 33.3224 35.8608C34.9796 35.0322 36.2462 33.8603 37.1222 32.3452C38.0218 30.83 38.4716 29.0426 38.4716 26.983C38.4716 24.8996 38.0218 23.1241 37.1222 21.6562C36.2462 20.1648 34.9796 19.0284 33.3224 18.2472C31.6889 17.4422 29.7121 17.0398 27.392 17.0398H20.4318V74H0.6875ZM63.3295 1.27273H85.3466L99.5511 30.8182H100.119L114.324 1.27273H136.341L109.636 51.1307V74H90.0341V51.1307L63.3295 1.27273ZM142.777 74V1.27273H174.169C179.567 1.27273 184.29 2.25521 188.338 4.22017C192.387 6.18513 195.535 9.0142 197.784 12.7074C200.033 16.4006 201.158 20.8276 201.158 25.9886C201.158 31.197 199.998 35.5885 197.678 39.1634C195.382 42.7382 192.15 45.437 187.983 47.2599C183.84 49.0829 178.999 49.9943 173.459 49.9943H154.709V34.6534H169.482C171.802 34.6534 173.779 34.3693 175.412 33.8011C177.069 33.2093 178.336 32.2741 179.212 30.9957C180.112 29.7173 180.561 28.0483 180.561 25.9886C180.561 23.9053 180.112 22.2126 179.212 20.9105C178.336 19.5848 177.069 18.6141 175.412 17.9986C173.779 17.3594 171.802 17.0398 169.482 17.0398H162.522V74H142.777ZM185.391 40.6193L203.573 74H182.124L164.368 40.6193H185.391ZM280.029 37.6364C280.029 45.733 278.454 52.563 275.306 58.1264C272.157 63.6662 267.908 67.8684 262.557 70.733C257.207 73.5739 251.241 74.9943 244.659 74.9943C238.031 74.9943 232.041 73.562 226.691 70.6974C221.364 67.8092 217.126 63.5952 213.978 58.0554C210.853 52.492 209.29 45.6856 209.29 37.6364C209.29 29.5398 210.853 22.7216 213.978 17.1818C217.126 11.6184 221.364 7.41619 226.691 4.57528C232.041 1.7107 238.031 0.278406 244.659 0.278406C251.241 0.278406 257.207 1.7107 262.557 4.57528C267.908 7.41619 272.157 11.6184 275.306 17.1818C278.454 22.7216 280.029 29.5398 280.029 37.6364ZM259.716 37.6364C259.716 33.2803 259.136 29.6108 257.976 26.6278C256.84 23.6212 255.147 21.3485 252.898 19.8097C250.673 18.2472 247.926 17.4659 244.659 17.4659C241.392 17.4659 238.634 18.2472 236.385 19.8097C234.16 21.3485 232.467 23.6212 231.307 26.6278C230.171 29.6108 229.603 33.2803 229.603 37.6364C229.603 41.9924 230.171 45.6738 231.307 48.6804C232.467 51.6634 234.16 53.9361 236.385 55.4986C238.634 57.0374 241.392 57.8068 244.659 57.8068C247.926 57.8068 250.673 57.0374 252.898 55.4986C255.147 53.9361 256.84 51.6634 257.976 48.6804C259.136 45.6738 259.716 41.9924 259.716 37.6364ZM307.097 17.1818V1.27273H370.308V17.1818H348.433V74H328.972V17.1818H307.097ZM377.738 74V1.27273H430.153V17.1818H397.483V29.6818H427.454V45.5909H397.483V58.0909H430.011V74H377.738ZM458.837 74H437.531L461.536 1.27273H488.525L512.531 74H491.224L475.315 21.3011H474.746L458.837 74ZM454.86 45.3068H494.917V60.0795H454.86V45.3068ZM519.535 1.27273H544.109L561.012 42.4659H561.865L578.768 1.27273H603.342V74H584.024V31.9545H583.456L567.262 73.4318H555.615L539.422 31.6705H538.853V74H519.535V1.27273Z" fill="white"/>
</svg>


